# xmcd
#
# Track frame offsets:
#	150
#	7308
#	24300
#	37859
#	52355
#	57531
#	75484
#	87207
#	108364
#	128508
#	147423
#	159624
#	189342
#	207664
#	228204
#
# Disc length: 3286 seconds
#
# Revision: 0
# Processed by: cddbd v1.5.2PL0 Copyright (c) Steve Scherf et al.
# Submitted via: dBpowerAMP V4.0
#
DISCID=c80cd40f
DTITLE=Jewel - Joy: A Holiday Collection - Live In Stockholm
DYEAR=1900
DGENRE=
TTITLE0=01 Intro
TTITLE1=02 Don't
TTITLE2=03 1000 Miles Away
TTITLE3=04 To Pieces Of You
TTITLE4=05 Pieces Of You
TTITLE5=06 Enter From The East
TTITLE6=07 Sad Lights
TTITLE7=08 Satellite
TTITLE8=09 Sometimes It Be That Way
TTITLE9=10 Who Will Save Your Soul
TTITLE10=11 Little Sister
TTITLE11=12 Last Dance Rodeo
TTITLE12=13 Near You always
TTITLE13=14 Foolish Games
TTITLE14=15 Angel Standing By
EXTD=
EXTT0=
EXTT1=
EXTT2=
EXTT3=
EXTT4=
EXTT5=
EXTT6=
EXTT7=
EXTT8=
EXTT9=
EXTT10=
EXTT11=
EXTT12=
EXTT13=
EXTT14=
PLAYORDER=
